<svg width="24" height="25" viewBox="0 0 24 25" fill="none" xmlns="http://www.w3.org/2000/svg">
<g clip-path="url(#clip0_93_1631)">
<path d="M12 3.11309C15.2063 3.11309 15.5859 3.12715 16.8469 3.1834C18.0188 3.23496 18.6516 3.43184 19.0734 3.5959C19.6313 3.81152 20.0344 4.07402 20.4516 4.49121C20.8734 4.91309 21.1313 5.31152 21.3469 5.86934C21.5109 6.29121 21.7078 6.92871 21.7594 8.0959C21.8156 9.36152 21.8297 9.74121 21.8297 12.9428C21.8297 16.149 21.8156 16.5287 21.7594 17.7896C21.7078 18.9615 21.5109 19.5943 21.3469 20.0162C21.1313 20.574 20.8687 20.9771 20.4516 21.3943C20.0297 21.8162 19.6313 22.074 19.0734 22.2896C18.6516 22.4537 18.0141 22.6506 16.8469 22.7021C15.5813 22.7584 15.2016 22.7725 12 22.7725C8.79375 22.7725 8.41406 22.7584 7.15313 22.7021C5.98125 22.6506 5.34844 22.4537 4.92656 22.2896C4.36875 22.074 3.96563 21.8115 3.54844 21.3943C3.12656 20.9725 2.86875 20.574 2.65313 20.0162C2.48906 19.5943 2.29219 18.9568 2.24063 17.7896C2.18438 16.524 2.17031 16.1443 2.17031 12.9428C2.17031 9.73652 2.18438 9.35684 2.24063 8.0959C2.29219 6.92402 2.48906 6.29121 2.65313 5.86934C2.86875 5.31152 3.13125 4.9084 3.54844 4.49121C3.97031 4.06934 4.36875 3.81152 4.92656 3.5959C5.34844 3.43184 5.98594 3.23496 7.15313 3.1834C8.41406 3.12715 8.79375 3.11309 12 3.11309ZM12 0.952148C8.74219 0.952148 8.33438 0.966211 7.05469 1.02246C5.77969 1.07871 4.90313 1.28496 4.14375 1.58027C3.35156 1.88965 2.68125 2.29746 2.01563 2.96777C1.34531 3.6334 0.9375 4.30371 0.628125 5.09121C0.332812 5.85527 0.126563 6.72715 0.0703125 8.00215C0.0140625 9.28652 0 9.69434 0 12.9521C0 16.21 0.0140625 16.6178 0.0703125 17.8975C0.126563 19.1725 0.332812 20.049 0.628125 20.8084C0.9375 21.6006 1.34531 22.2709 2.01563 22.9365C2.68125 23.6021 3.35156 24.0146 4.13906 24.3193C4.90313 24.6146 5.775 24.8209 7.05 24.8771C8.32969 24.9334 8.7375 24.9475 11.9953 24.9475C15.2531 24.9475 15.6609 24.9334 16.9406 24.8771C18.2156 24.8209 19.0922 24.6146 19.8516 24.3193C20.6391 24.0146 21.3094 23.6021 21.975 22.9365C22.6406 22.2709 23.0531 21.6006 23.3578 20.8131C23.6531 20.049 23.8594 19.1771 23.9156 17.9021C23.9719 16.6225 23.9859 16.2146 23.9859 12.9568C23.9859 9.69902 23.9719 9.29121 23.9156 8.01152C23.8594 6.73652 23.6531 5.85996 23.3578 5.10059C23.0625 4.30371 22.6547 3.6334 21.9844 2.96777C21.3188 2.30215 20.6484 1.88965 19.8609 1.58496C19.0969 1.28965 18.225 1.0834 16.95 1.02715C15.6656 0.966211 15.2578 0.952148 12 0.952148Z" fill="#98A2B3"/>
<path d="M12 6.78809C8.59688 6.78809 5.83594 9.54902 5.83594 12.9521C5.83594 16.3553 8.59688 19.1162 12 19.1162C15.4031 19.1162 18.1641 16.3553 18.1641 12.9521C18.1641 9.54902 15.4031 6.78809 12 6.78809ZM12 16.9506C9.79219 16.9506 8.00156 15.16 8.00156 12.9521C8.00156 10.7443 9.79219 8.95371 12 8.95371C14.2078 8.95371 15.9984 10.7443 15.9984 12.9521C15.9984 15.16 14.2078 16.9506 12 16.9506Z" fill="#98A2B3"/>
<path d="M19.8469 6.54429C19.8469 7.34117 19.2 7.98335 18.4078 7.98335C17.6109 7.98335 16.9688 7.33648 16.9688 6.54429C16.9688 5.74741 17.6156 5.10522 18.4078 5.10522C19.2 5.10522 19.8469 5.7521 19.8469 6.54429Z" fill="#98A2B3"/>
</g>
<defs>
<clipPath id="clip0_93_1631">
<rect width="24" height="24" fill="white" transform="translate(0 0.952148)"/>
</clipPath>
</defs>
</svg>
