<svg width="194" height="37" viewBox="0 0 194 37" fill="none" xmlns="http://www.w3.org/2000/svg">
<path d="M34.4021 1.21278C31.8713 1.31608 29.8571 1.62597 29.8571 1.88422C29.8571 2.19411 30.1669 2.4007 30.5801 2.4007C30.9933 2.4007 31.7164 2.76224 32.1296 3.22708C32.8527 3.89851 32.956 6.06774 32.956 18.9282C32.956 31.7887 32.8527 33.9579 32.1296 34.6294C31.7164 35.0942 30.9933 35.4557 30.5801 35.4557C30.1669 35.4557 29.8571 35.6107 29.8571 35.8173C29.8571 36.0755 32.9043 36.2305 36.5714 36.2305C40.2901 36.2305 43.2857 36.0755 43.2857 35.8173C43.2857 35.6107 42.9758 35.4557 42.5626 35.4557C42.1494 35.4557 41.4263 35.0942 41.0131 34.6294C40.2901 33.9579 40.1868 31.6338 40.1868 17.3271C40.1868 4.41499 40.0318 0.851246 39.567 0.954544C39.2054 1.00619 36.8813 1.16114 34.4021 1.21278Z" fill="white"/>
<path d="M2.48329 5.18975L4.29099 5.86118V20.2711V34.681L2.58659 35.1975C1.70857 35.4558 0.933838 35.8173 0.933838 36.0239C0.933838 36.1788 4.75583 36.3338 9.45584 36.3854C17.668 36.4371 20.1471 35.9723 16.0669 35.1975C12.9679 34.6294 12.813 34.3195 12.813 28.6898V23.6283L15.8086 23.3184C25.7768 22.2854 29.857 19.3414 29.857 13.092C29.857 10.148 28.2559 7.72052 25.2086 6.01612C22.9361 4.77656 22.5746 4.72491 11.78 4.62161C2.12175 4.51832 0.933838 4.56997 2.48329 5.18975ZM19.8372 6.58426C22.2647 9.06339 22.5746 16.2942 20.3537 19.5997C18.9592 21.614 17.2548 22.5436 14.7756 22.5436H12.813V14.3832C12.813 8.5469 13.0196 6.01612 13.4844 5.55129C14.4657 4.51832 18.391 5.1381 19.8372 6.58426Z" fill="white"/>
<path d="M52.8406 12.4205C52.5823 12.5755 51.4461 12.7821 50.4131 12.9887C49.3285 13.1436 47.779 13.8667 46.901 14.5898C44.0603 17.0172 45.2482 20.9942 48.7603 20.9942C52.3757 20.9942 53.9252 17.4821 51.2911 15.2095C49.7417 13.8667 50.3098 13.2469 53.2538 13.2469C56.2494 13.2469 57.2307 14.5898 57.2307 18.6183C57.2307 20.7876 56.9725 22.0788 56.5076 22.492C56.1461 22.8019 54.1834 23.6282 52.2208 24.2997C47.1592 26.0041 45.5065 26.9854 44.5768 28.7415C43.5955 30.6524 43.5955 31.9953 44.5768 33.9063C45.6098 35.9206 46.7977 36.4887 49.9999 36.4887C52.8406 36.4887 54.1318 35.9722 56.1461 34.2162C57.0757 33.3898 57.4373 33.2865 57.6439 33.8547C58.5219 36.3338 62.1373 37.2635 65.9593 35.9206C67.9219 35.1975 68.0769 34.4744 66.1659 34.5777L64.7197 34.681L64.4615 25.6425C64.2032 15.7777 63.945 14.848 61.2593 13.4535C59.7098 12.6788 54.0285 11.9557 52.8406 12.4205ZM56.1461 32.9766C53.7186 34.9909 51.0329 33.4415 51.0329 30.0843C51.0329 27.4502 51.6527 26.5206 54.6483 24.6612L56.9725 23.2151L57.1274 27.6568C57.2823 31.6854 57.179 32.2019 56.1461 32.9766Z" fill="white"/>
<path d="M84.088 13.0403C83.1067 13.4535 81.7638 14.3315 81.144 14.8996L79.9561 15.9843V14.2799V12.5755L76.8055 12.937C75.0495 13.0919 72.6737 13.2469 71.4858 13.2469H69.3682L71.0726 14.2799L72.7253 15.3128V24.7645C72.7253 34.5261 72.5187 35.4557 70.5561 35.4557C70.0396 35.4557 69.6264 35.6107 69.6264 35.8173C69.6264 36.0755 72.5187 36.2305 76.0825 36.2305C79.6462 36.2305 82.5385 36.0755 82.5385 35.9206C82.5385 35.7656 81.9704 35.3524 81.2473 35.0426L79.9561 34.4228V25.8491V17.2755L81.4539 15.7777C83.1067 14.1249 86.0506 13.7117 87.1352 15.0029C87.5484 15.4678 87.7034 18.6183 87.6001 25.1777C87.4451 34.4744 87.4451 34.681 86.3089 35.1975C85.6374 35.4557 85.121 35.8173 85.121 35.9722C85.121 36.1272 88.0133 36.2305 91.577 36.2305C95.1408 36.2305 98.0331 36.0755 98.0331 35.8173C98.0331 35.6107 97.7232 35.4557 97.31 35.4557C96.8968 35.4557 96.1737 35.0942 95.7605 34.6294C95.0891 33.9579 94.9342 32.4085 94.9342 25.4876C94.9342 18.5667 94.7792 16.8106 94.0045 15.3128C92.61 12.4722 87.91 11.3875 84.088 13.0403Z" fill="white"/>
<path d="M106.4 12.7304C103.663 13.3502 101.648 15.6227 101.648 18.0502C101.648 20.8909 102.94 22.7502 106.813 25.6425C111.823 29.3612 112.598 30.3426 112.391 32.6667C112.288 34.2678 111.926 34.836 110.79 35.3525C107.743 36.7986 104.231 34.5777 102.991 30.3942C101.855 26.4173 101.132 27.0887 101.132 32.047C101.132 36.2821 101.597 37.4184 102.578 35.6624C102.991 34.9393 103.353 34.9909 106.193 35.9206C109.964 37.2118 110.997 37.2635 114.354 36.2305C117.814 35.1975 119.829 33.0799 119.932 30.3426C119.984 27.7085 118.796 26.1074 114.509 22.9568C107.381 17.637 106.658 16.4491 109.137 13.97C109.86 13.2469 110.429 12.5755 110.429 12.4722C110.429 12.1106 108.414 12.2656 106.4 12.7304Z" fill="white"/>
<path d="M130.985 12.9887C128.041 13.9183 125.097 16.8106 124.374 19.3931C124.116 20.426 123.857 23.0085 123.857 25.1777C123.857 32.3052 127.318 36.1788 134.187 36.7986C141.934 37.5217 146.996 33.8546 147.874 26.8821C148.287 23.4733 147.409 19.0315 145.911 16.759C143.38 12.9887 136.408 11.2326 130.985 12.9887ZM138.009 14.2282C139.662 16.0876 140.333 18.9799 140.333 24.6096C140.333 32.4601 138.732 36.1788 135.53 35.8689C132.534 35.559 131.14 31.9953 131.088 24.5579C131.088 19.8579 132.018 15.8293 133.464 14.2282C134.6 12.937 136.873 12.9887 138.009 14.2282Z" fill="white"/>
<path d="M164.401 12.9887C163.265 13.4018 162.284 13.7634 162.232 13.7634C162.18 13.7634 161.871 14.2799 161.509 14.848C160.941 15.9326 160.993 15.9326 162.129 15.1062C163.678 14.0733 165.899 14.0216 166.932 15.1062C167.604 15.7777 167.759 17.3788 167.759 24.6612C167.759 33.5448 167.449 35.4558 165.848 35.4558C165.383 35.4558 165.176 35.6107 165.331 35.8173C165.744 36.1788 177.572 36.3854 177.572 35.9722C177.572 35.8173 177.055 35.4558 176.435 35.1975C175.299 34.681 175.248 34.4228 175.093 26.0041L174.989 17.3271L176.487 15.7777C178.192 14.0733 180.619 13.7634 181.962 15.1062C182.633 15.8293 182.737 17.2755 182.633 25.281L182.478 34.6294L181.187 35.3008C180.464 35.6624 179.999 35.9722 180.154 36.0239C181.342 36.2305 193.066 36.1788 193.066 35.9722C193.066 35.8173 192.395 35.4041 191.517 35.0942L189.967 34.5261V26.314C189.967 17.2238 189.503 14.7964 187.643 13.5568C184.441 11.4909 178.811 12.1106 176.126 14.848C174.679 16.3458 174.576 16.3975 174.266 15.4161C173.44 12.8337 168.172 11.5425 164.401 12.9887Z" fill="white"/>
<path d="M153.297 13.1952C150.663 13.4535 150.198 13.6084 151.128 13.9183C152.987 14.5898 153.297 16.2941 153.297 25.0227C153.297 33.803 152.884 35.4557 150.611 35.4557C149.991 35.4557 149.681 35.6107 149.888 35.8173C150.353 36.2821 162.594 36.3338 162.594 35.8689C162.594 35.6623 162.129 35.4041 161.612 35.1975C161.096 35.0426 160.476 34.3711 160.321 33.7513C159.856 31.9953 159.96 19.1348 160.476 17.792C160.683 17.1205 160.786 15.726 160.631 14.6414C160.373 12.4722 160.683 12.5755 153.297 13.1952Z" fill="white"/>
<path d="M119.499 4.33752L121.222 8.81714C121.503 9.54561 121.643 9.90985 121.861 10.2162C122.054 10.4878 122.291 10.725 122.562 10.9181C122.869 11.1359 123.233 11.276 123.961 11.5562L128.441 13.2791L123.961 15.0021C123.233 15.2822 122.869 15.4223 122.562 15.6402C122.291 15.8333 122.054 16.0705 121.861 16.3421C121.643 16.6484 121.503 17.0127 121.222 17.7411L119.499 22.2208L117.777 17.7411C117.496 17.0127 117.356 16.6484 117.138 16.3421C116.945 16.0705 116.708 15.8333 116.437 15.6402C116.13 15.4223 115.766 15.2822 115.037 15.0021L110.558 13.2791L115.037 11.5562C115.766 11.276 116.13 11.1359 116.437 10.9181C116.708 10.725 116.945 10.4878 117.138 10.2162C117.356 9.90985 117.496 9.54561 117.777 8.81714L119.499 4.33752Z" fill="#F2CB55" stroke="#F2CB55" stroke-width="0.449893" stroke-linecap="round" stroke-linejoin="round"/>
</svg>
