<svg width="69" height="69" viewBox="0 0 69 69" fill="none" xmlns="http://www.w3.org/2000/svg">
<g filter="url(#filter0_d_93_1149)">
<path d="M2.5 13.9524C2.5 7.32498 7.87258 1.95239 14.5 1.95239H54.5C61.1274 1.95239 66.5 7.32498 66.5 13.9524V53.9524C66.5 60.5798 61.1274 65.9524 54.5 65.9524H14.5C7.87258 65.9524 2.5 60.5798 2.5 53.9524V13.9524Z" fill="white" shape-rendering="crispEdges"/>
<path d="M3 13.9524C3 7.60112 8.14873 2.45239 14.5 2.45239H54.5C60.8513 2.45239 66 7.60112 66 13.9524V53.9524C66 60.3037 60.8513 65.4524 54.5 65.4524H14.5C8.14873 65.4524 3 60.3037 3 53.9524V13.9524Z" stroke="#E4E7EC" shape-rendering="crispEdges"/>
<path d="M52.8754 32.202C55.2914 32.202 57.25 30.2434 57.25 27.8274C57.25 25.4113 55.2912 23.4528 52.8752 23.4528C50.4589 23.4528 48.5 25.4115 48.5 27.8278V32.202H52.8754ZM40.625 32.202C43.0412 32.202 45 30.2433 45 27.827V15.5778C45 13.1615 43.0412 11.2028 40.625 11.2028C38.2088 11.2028 36.25 13.1615 36.25 15.5778V27.827C36.25 30.2433 38.2088 32.202 40.625 32.202Z" fill="#2EB67D"/>
<path d="M16.1246 35.7028C13.7086 35.7028 11.75 37.6614 11.75 40.0774C11.75 42.4934 13.7088 44.452 16.1248 44.452C18.5411 44.452 20.5 42.4933 20.5 40.077V35.7028H16.1246ZM28.375 35.7028C25.9588 35.7028 24 37.6615 24 40.0778V52.327C24 54.7433 25.9588 56.702 28.375 56.702C30.7912 56.702 32.75 54.7433 32.75 52.327V40.0778C32.75 37.6615 30.7912 35.7028 28.375 35.7028Z" fill="#E01E5A"/>
<path d="M36.2503 52.3278C36.2503 54.7438 38.2088 56.7024 40.6249 56.7024C43.0409 56.7024 44.9995 54.7436 44.9995 52.3276C44.9995 49.9113 43.0408 47.9524 40.6245 47.9524L36.2503 47.9524L36.2503 52.3278ZM36.2503 40.0774C36.2503 42.4936 38.209 44.4524 40.6253 44.4524L52.8745 44.4524C55.2908 44.4524 57.2495 42.4936 57.2495 40.0774C57.2495 37.6611 55.2908 35.7024 52.8745 35.7024L40.6253 35.7024C38.209 35.7024 36.2503 37.6611 36.2503 40.0774Z" fill="#ECB22E"/>
<path d="M32.7496 15.577C32.7496 13.161 30.791 11.2024 28.375 11.2024C25.959 11.2024 24.0004 13.1612 24.0004 15.5772C24.0004 17.9935 25.9591 19.9524 28.3754 19.9524L32.7496 19.9524L32.7496 15.577ZM32.7496 27.8274C32.7496 25.4111 30.7909 23.4524 28.3746 23.4524L16.1254 23.4524C13.7091 23.4524 11.7504 25.4111 11.7504 27.8274C11.7504 30.2436 13.7091 32.2024 16.1254 32.2024L28.3746 32.2024C30.7909 32.2024 32.7496 30.2436 32.7496 27.8274Z" fill="#36C5F0"/>
</g>
<defs>
<filter id="filter0_d_93_1149" x="0.5" y="0.952393" width="68" height="68" filterUnits="userSpaceOnUse" color-interpolation-filters="sRGB">
<feFlood flood-opacity="0" result="BackgroundImageFix"/>
<feColorMatrix in="SourceAlpha" type="matrix" values="0 0 0 0 0 0 0 0 0 0 0 0 0 0 0 0 0 0 127 0" result="hardAlpha"/>
<feOffset dy="1"/>
<feGaussianBlur stdDeviation="1"/>
<feComposite in2="hardAlpha" operator="out"/>
<feColorMatrix type="matrix" values="0 0 0 0 0.0627451 0 0 0 0 0.0941176 0 0 0 0 0.156863 0 0 0 0.05 0"/>
<feBlend mode="normal" in2="BackgroundImageFix" result="effect1_dropShadow_93_1149"/>
<feBlend mode="normal" in="SourceGraphic" in2="effect1_dropShadow_93_1149" result="shape"/>
</filter>
</defs>
</svg>
