<svg width="24" height="25" viewBox="0 0 24 25" fill="none" xmlns="http://www.w3.org/2000/svg">
<g clip-path="url(#clip0_93_1628)">
<path d="M22.2234 0.952148H1.77187C0.792187 0.952148 0 1.72559 0 2.68184V23.2178C0 24.174 0.792187 24.9521 1.77187 24.9521H22.2234C23.2031 24.9521 24 24.174 24 23.2225V2.68184C24 1.72559 23.2031 0.952148 22.2234 0.952148ZM7.12031 21.4037H3.55781V9.94746H7.12031V21.4037ZM5.33906 8.38652C4.19531 8.38652 3.27188 7.46309 3.27188 6.32402C3.27188 5.18496 4.19531 4.26152 5.33906 4.26152C6.47813 4.26152 7.40156 5.18496 7.40156 6.32402C7.40156 7.4584 6.47813 8.38652 5.33906 8.38652ZM20.4516 21.4037H16.8937V15.835C16.8937 14.5084 16.8703 12.7975 15.0422 12.7975C13.1906 12.7975 12.9094 14.2459 12.9094 15.7412V21.4037H9.35625V9.94746H12.7687V11.5131H12.8156C13.2891 10.6131 14.4516 9.66152 16.1813 9.66152C19.7859 9.66152 20.4516 12.0334 20.4516 15.1178V21.4037Z" fill="#98A2B3"/>
</g>
<defs>
<clipPath id="clip0_93_1628">
<rect width="24" height="24" fill="white" transform="translate(0 0.952148)"/>
</clipPath>
</defs>
</svg>
